<?xml version="1.0" encoding="UTF-8"?>
<svg version="1.1" xmlns="http://www.w3.org/2000/svg" viewBox="0 0 130 130" width="130" height="130">
  <g transform="translate(0, 21)">
    <path d="M0 0 C0.89847656 0.4021875 1.79695313 0.804375 2.72265625 1.21875 C9.84215983 4.74422632 17.21311423 9.66761227 20.9921875 16.8984375 C21 19 21 19 19.765625 22.2265625 C16.63276678 25.3682706 16.02493847 25.42558297 11.796875 25.5859375 C9.7804167 25.54613898 7.7643854 25.47469674 5.75 25.375 C4.71875 25.34792969 3.6875 25.32085938 2.625 25.29296875 C0.0812125 25.22230799 -2.45833099 25.12372078 -5 25 C-2.24420281 30.67499474 0.50150361 36.03846404 4.27734375 41.11328125 C5 43 5 43 4.41796875 45.2734375 C2.60302638 48.76332668 0.5384535 52.03013539 -1.625 55.3125 C-2.04523438 55.95767578 -2.46546875 56.60285156 -2.8984375 57.26757812 C-3.92838241 58.84760724 -4.96365628 60.42416047 -6 62 C-7.175625 61.690625 -7.175625 61.690625 -8.375 61.375 C-9.24125 61.25125 -10.1075 61.1275 -11 61 C-13.12862394 62.78562677 -13.12862394 62.78562677 -13.5 65 C-14 67 -14 67 -16 69 C-16 70.32 -16 71.64 -16 73 C-13.36095629 74.41377341 -10.92879371 75.37240135 -8 76 C-8.495 77.98 -8.495 77.98 -9 80 C-6.76689448 78.92424145 -4.53875499 77.83977517 -2.3125 76.75 C-1.37374023 76.29947266 -1.37374023 76.29947266 -0.41601562 75.83984375 C5.04646087 73.15150453 9.40420354 69.976312 13.3125 65.25 C13.82425781 64.63640625 14.33601563 64.0228125 14.86328125 63.390625 C15.23839844 62.93171875 15.61351563 62.4728125 16 62 C17.485 63.98 17.485 63.98 19 66 C11.13401083 76.4171208 0.76150923 81.682234 -12 84 C-27.19286247 85.45798462 -40.65078035 81.63617483 -52.75 72.3125 C-61.96207653 63.87547799 -66.37442137 52.56631349 -67.06640625 40.37890625 C-66.82311454 27.99965184 -61.78061088 18.19827744 -53.5 9.33203125 C-39.92396789 -3.33186121 -17.15252283 -7.84794805 0 0 Z M-44 7 C-43.34 7.33 -42.68 7.66 -42 8 C-42.61667207 10.46070116 -43.24288393 12.91826521 -43.875 15.375 C-44.04902344 16.07367187 -44.22304688 16.77234375 -44.40234375 17.4921875 C-45.7734375 22.7734375 -45.7734375 22.7734375 -48 25 C-48.24339551 27.89883083 -48.24339551 27.89883083 -48.125 31.125 C-48.10695313 32.22070312 -48.08890625 33.31640625 -48.0703125 34.4453125 C-48.04710938 35.28835937 -48.02390625 36.13140625 -48 37 C-47.67 36.34 -47.34 35.68 -47 35 C-46.34 35 -45.68 35 -45 35 C-45.06058594 35.87011719 -45.12117188 36.74023438 -45.18359375 37.63671875 C-44.97355283 41.4844896 -43.98634901 43.5034797 -42.0625 46.8125 C-41.51722656 47.76769531 -40.97195312 48.72289062 -40.41015625 49.70703125 C-39.19376803 51.88353129 -39.19376803 51.88353129 -38 53 C-36.2984375 53.185625 -36.2984375 53.185625 -34.5625 53.375 C-33.386875 53.58125 -32.21125 53.7875 -31 54 C-30.34 54.99 -29.68 55.98 -29 57 C-28.21625 56.938125 -27.4325 56.87625 -26.625 56.8125 C-25.325625 56.9053125 -25.325625 56.9053125 -24 57 C-21.6875 60 -21.6875 60 -20 63 C-19.01 62.505 -19.01 62.505 -18 62 C-18.309375 61.401875 -18.61875 60.80375 -18.9375 60.1875 C-20 58 -20 58 -21 55 C-22.65 54.67 -24.3 54.34 -26 54 C-25.67 52.35 -25.34 50.7 -25 49 C-25.99 49 -26.98 49 -28 49 C-28.33 49.66 -28.66 50.32 -29 51 C-30.65 51 -32.3 51 -34 51 C-35.34272735 43.67603264 -35.34272735 43.67603264 -33.86328125 40.7578125 C-32 39 -32 39 -29.40625 38.5390625 C-28.4471875 38.56742188 -27.488125 38.59578125 -26.5 38.625 C-25.5409375 38.63789062 -24.581875 38.65078125 -23.59375 38.6640625 C-21 39 -21 39 -18 41 C-18.0825 40.236875 -18.165 39.47375 -18.25 38.6875 C-18.1675 37.800625 -18.085 36.91375 -18 36 C-16.66666667 35 -15.33333333 34 -14 33 C-13.66574265 30.37374861 -13.66574265 30.37374861 -14 28 C-12.35 28 -10.7 28 -9 28 C-9.66 27.67 -10.32 27.34 -11 27 C-10.0022242 24.00667261 -9.2477975 23.05233685 -7 21 C-8.32 21 -9.64 21 -11 21 C-11 19.68 -11 18.36 -11 17 C-8.69 17 -6.38 17 -4 17 C-6.6860286 15.20931427 -8.6626589 14.33944209 -11.6875 13.375 C-12.49574219 13.11460938 -13.30398437 12.85421875 -14.13671875 12.5859375 C-15.05904297 12.29589844 -15.05904297 12.29589844 -16 12 C-17.2981424 14.2236068 -17.2981424 14.2236068 -17 18 C-17.99 18.33 -18.98 18.66 -20 19 C-20.33 18.01 -20.66 17.02 -21 16 C-23.01508358 15.26676204 -23.01508358 15.26676204 -25 15 C-25 13.35 -25 11.7 -25 10 C-23.35 9.67 -21.7 9.34 -20 9 C-22.64098754 7.23934164 -23.9742655 6.47277101 -27 6 C-27.99 6.33 -28.98 6.66 -30 7 C-29.67 6.01 -29.34 5.02 -29 4 C-25.41581821 2.66471659 -22.5198611 1.9901913 -18.6875 2.0625 C-17.800625 2.041875 -16.91375 2.02125 -16 2 C-15.34 1.01 -14.68 0.02 -14 -1 C-25.24423654 -1.20707618 -34.27383658 1.42717123 -44 7 Z M-16 3 C-14.22352072 5.15293523 -14.22352072 5.15293523 -12 5.375 C-10 6 -10 6 -8.9375 8 C-8.628125 8.66 -8.31875 9.32 -8 10 C-7.01 10.33 -6.02 10.66 -5 11 C-4.67 10.01 -4.34 9.02 -4 8 C-6.06026719 5.35418376 -6.06026719 5.35418376 -9 3 C-12.71000718 2.58168596 -12.71000718 2.58168596 -16 3 Z M6 6 C6.33 6.99 6.66 7.98 7 9 C9.01508358 9.73323796 9.01508358 9.73323796 11 10 C9.68799596 8.64567325 8.35368596 7.31266518 7 6 C6.67 6 6.34 6 6 6 Z M-15 7 C-14 9 -14 9 -14 9 Z M-46 8 C-46 8.99 -46 9.98 -46 11 C-45.34 10.01 -44.68 9.02 -44 8 C-44.66 8 -45.32 8 -46 8 Z M12 11 C12.33 12.32 12.66 13.64 13 15 C13.66 14.67 14.32 14.34 15 14 C14.01 13.01 13.02 12.02 12 11 Z M15 18 C15.99 18.99 16.98 19.98 18 21 C17.67 20.01 17.34 19.02 17 18 C16.34 18 15.68 18 15 18 Z M-4 19 C-4 19.66 -4 20.32 -4 21 C-3.34 21 -2.68 21 -2 21 C-2 20.34 -2 19.68 -2 19 C-2.66 19 -3.32 19 -4 19 Z M-14 44 C-14 44.66 -14 45.32 -14 46 C-13.34 46 -12.68 46 -12 46 C-12 45.34 -12 44.68 -12 44 C-12.66 44 -13.32 44 -14 44 Z M-20 47 C-20 47.99 -20 48.98 -20 50 C-18.35 49.67 -16.7 49.34 -15 49 C-15.33 48.34 -15.66 47.68 -16 47 C-17.32 47 -18.64 47 -20 47 Z M-15 49 C-14.01 49.99 -13.02 50.98 -12 52 C-11.67 51.01 -11.34 50.02 -11 49 C-12.32 49 -13.64 49 -15 49 Z M-8 49 C-7.67 50.32 -7.34 51.64 -7 53 C-7 51.68 -7 50.36 -7 49 C-7.33 49 -7.66 49 -8 49 Z " fill="#04005D" transform="translate(67,3)"/>
    <path d="M0 0 C2.25092826 2.61398121 3.96644158 4.92633974 5.40234375 8.078125 C7.25370895 11.90333757 8.72994819 14.23918406 12 17 C18.78524479 18.80538664 26.04374786 18.38100947 33 18 C31.22319634 23.01312462 28.36125333 26.89968289 25.265625 31.18359375 C23.69569689 33.95699042 23.69569689 33.95699042 24.5703125 36.98828125 C26.04847468 40.10211468 27.70436817 42.88881184 29.625 45.75 C33 50.79183673 33 50.79183673 33 53 C25.74 53 18.48 53 11 53 C10.34 54.65 9.68 56.3 9 58 C7.89867292 59.94258174 6.75060793 61.85924759 5.5625 63.75 C4.96566406 64.71421875 4.36882812 65.6784375 3.75390625 66.671875 C2 69 2 69 -1 70 C-1.46664062 68.85660156 -1.93328125 67.71320313 -2.4140625 66.53515625 C-4.64691709 61.79950653 -6.84658789 57.32052469 -11 54 C-18.02378902 51.71648699 -25.73145308 52.3667915 -33 53 C-31.51364884 48.78345644 -29.38750841 45.37521395 -26.875 41.6875 C-25.78832031 40.08455078 -25.78832031 40.08455078 -24.6796875 38.44921875 C-23.84824219 37.23685547 -23.84824219 37.23685547 -23 36 C-24.1010141 34.08152063 -25.20594096 32.16528646 -26.3125 30.25 C-26.92738281 29.18265625 -27.54226562 28.1153125 -28.17578125 27.015625 C-29.8893791 24.06026739 -29.8893791 24.06026739 -31.73046875 21.734375 C-33 20 -33 20 -33 18 C-32.39115967 18.05873291 -31.78231934 18.11746582 -31.1550293 18.17797852 C-19.39375962 19.40686272 -19.39375962 19.40686272 -8.87841797 15.28417969 C-5.04409752 10.70560539 -2.34052992 5.47248071 0 0 Z M0 7 C-1.22474531 8.61830855 -2.40509331 10.27036672 -3.5625 11.9375 C-4.20316406 12.85402344 -4.84382813 13.77054688 -5.50390625 14.71484375 C-7.0912917 16.68421646 -7.0912917 16.68421646 -7 18 C-2.38 18 2.24 18 7 18 C5.31239156 13.7809789 3.6283563 10.64578455 1 7 C0.67 7 0.34 7 0 7 Z M-27 21 C-25.31482096 25.2129476 -23.56523798 28.32315889 -21 32 C-17.32966073 28.72291137 -15.30718811 25.28477792 -13 21 C-17.62 21 -22.24 21 -27 21 Z M-10.953125 23.12109375 C-12.73407143 25.69897629 -14.39444539 28.30995468 -16 31 C-16.66 31.99 -17.32 32.98 -18 34 C-17.67869316 37.76732271 -15.52250432 40.58328742 -13.5 43.6875 C-12.8709375 44.66074219 -12.241875 45.63398437 -11.59375 46.63671875 C-10.20414445 48.85948741 -10.20414445 48.85948741 -9 50 C-6.69 50 -4.38 50 -2 50 C-2 44.39 -2 38.78 -2 33 C-4.31 33 -6.62 33 -9 33 C-9 31.68 -9 30.36 -9 29 C-6.69 29 -4.38 29 -2 29 C-2 26.36 -2 23.72 -2 21 C-5.95763416 20.19231956 -8.12856366 20.05362013 -10.953125 23.12109375 Z M2 21 C2 23.64 2 26.28 2 29 C4.31 29 6.62 29 9 29 C9 30.32 9 31.64 9 33 C6.69 33 4.38 33 2 33 C2 38.61 2 44.22 2 50 C9.28849031 50.79380983 9.28849031 50.79380983 11.734375 48.71484375 C12.06953125 48.12832031 12.4046875 47.54179688 12.75 46.9375 C13.13027344 46.30585937 13.51054688 45.67421875 13.90234375 45.0234375 C14.26457031 44.35570313 14.62679687 43.68796875 15 43 C15.39316406 42.33226563 15.78632812 41.66453125 16.19140625 40.9765625 C17.15409818 39.33294213 18.08073438 37.66829686 19 36 C17.87616008 34.06182687 16.75088679 32.12448482 15.625 30.1875 C14.99851562 29.10855469 14.37203125 28.02960937 13.7265625 26.91796875 C12.53944654 24.91168907 11.29310627 22.93965941 10 21 C8.02252878 20.63702064 8.02252878 20.63702064 5.875 20.8125 C4.59625 20.874375 3.3175 20.93625 2 21 Z M14 21 C15.98 24.63 17.96 28.26 20 32 C23.66617351 28.35407464 23.66617351 28.35407464 26.25 24.25 C27.11625 22.64125 27.11625 22.64125 28 21 C23.38 21 18.76 21 14 21 Z M-21 39 C-22.06147575 40.42902276 -23.07452667 41.89420781 -24.0625 43.375 C-24.61035156 44.18710937 -25.15820312 44.99921875 -25.72265625 45.8359375 C-27.16943676 47.86823778 -27.16943676 47.86823778 -27 50 C-22.38 50 -17.76 50 -13 50 C-14.134375 48.185 -15.26875 46.37 -16.4375 44.5 C-17.39462891 42.96859375 -17.39462891 42.96859375 -18.37109375 41.40625 C-18.90863281 40.6121875 -19.44617188 39.818125 -20 39 C-20.33 39 -20.66 39 -21 39 Z M20 39 C18.02 42.63 16.04 46.26 14 50 C18.62 50 23.24 50 28 50 C27.05125 48.370625 26.1025 46.74125 25.125 45.0625 C24.32449219 43.68771484 24.32449219 43.68771484 23.5078125 42.28515625 C22.20287437 39.89299704 22.20287437 39.89299704 20 39 Z M-7 53 C-6.071875 54.65 -5.14375 56.3 -4.1875 58 C-3.66542969 58.928125 -3.14335938 59.85625 -2.60546875 60.8125 C-1.81076172 61.8953125 -1.81076172 61.8953125 -1 63 C-0.01 63 0.98 63 2 63 C3.47242476 61.30466389 3.47242476 61.30466389 4.6875 59.125 C5.12449219 58.40570313 5.56148437 57.68640625 6.01171875 56.9453125 C7.15097774 55.06647818 7.15097774 55.06647818 7 53 C2.38 53 -2.24 53 -7 53 Z " fill="#04005D" transform="translate(96,11)"/>
    <path d="M0 0 C3.0625 -0.25 3.0625 -0.25 6 0 C7 1 7 1 7.125 4 C7 7 7 7 6 8 C4.00041636 8.04080783 1.99954746 8.04254356 0 8 C-1.125 5.6875 -1.125 5.6875 -2 3 C-1.34 2.01 -0.68 1.02 0 0 Z M0 2 C1 6 1 6 1 6 Z M5 3 C6 5 6 5 6 5 Z " fill="#04005D" transform="translate(80,80)"/>
    <path d="M0 0 C2.64 0 5.28 0 8 0 C6.02 2.97 6.02 2.97 4 6 C2.62437146 4.71034824 1.29233607 3.37310707 0 2 C0 1.34 0 0.68 0 0 Z " fill="#04005D" transform="translate(72,34)"/>
  </g>
</svg>
